<svg width="728" height="684" viewBox="0 0 728 684" fill="none" xmlns="http://www.w3.org/2000/svg">
<g clip-path="url(#clip0_3007_459)">
<path d="M54.38 125.63C54.09 114.41 51.8 86.3099 31.77 60.0099C20.92 45.7599 8.64 36.9999 0 31.9199V125.63H54.38Z" fill="white" fill-opacity="0.2"/>
<path d="M54.38 281.74C54.09 292.96 51.8 321.06 31.77 347.36C20.92 361.6 8.64 370.36 0 375.45V281.74H54.38Z" fill="white" fill-opacity="0.2"/>
<path d="M54.38 253.19C54.24 244.85 54.32 199.78 90.13 163.21C124.35 128.26 166.85 125.92 175.78 125.63C175.62 168.08 175.46 210.53 175.3 252.98C134.99 253.05 94.69 253.12 54.38 253.2V253.19Z" fill="white" fill-opacity="0.2"/>
<path d="M296.76 324.76C297.03 317.61 298.02 271.21 260.9 235.66C226.1 202.33 183.45 203.09 175.78 203.37V324.77H296.76V324.76Z" fill="white" fill-opacity="0.2"/>
<path d="M296.76 175.57V79.6799C305.37 78.7099 339.74 75.8699 372.2 98.8899C410.73 126.22 416.5 168.67 417.32 175.57H296.76Z" fill="white" fill-opacity="0.2"/>
<path d="M417.32 298.46H538.3C538.58 290.72 539.38 247.54 505.61 212.18C470.37 175.27 424.71 175.42 417.32 175.57V298.46Z" fill="white" fill-opacity="0.2"/>
<path d="M658.86 158.38V281.27H725.99C726.08 246.04 726.17 210.81 726.26 175.57C719.23 171.15 708.82 165.67 695.34 162.04C680.46 158.04 667.57 157.83 658.86 158.37V158.38Z" fill="white" fill-opacity="0.2"/>
<path d="M658.86 431.6V558.4C667.51 558.03 679.44 556.59 692.88 552.01C707.92 546.88 719.18 539.74 726.54 534.22C726.45 500.1 726.36 465.99 726.27 431.87C703.8 431.78 681.33 431.69 658.86 431.6Z" fill="white" fill-opacity="0.2"/>
<path d="M538.3 604.43H417.32V492.66C465.59 492.3 508.4 514.2 527.58 550.92C538.23 571.31 539.11 591.5 538.3 604.43Z" fill="white" fill-opacity="0.2"/>
<path d="M417.32 480.53C406.99 479.87 367.41 476.14 334.65 443.65C296.38 405.7 296.59 357.45 296.76 349.04H417.32V480.53Z" fill="white" fill-opacity="0.2"/>
<path d="M54.3799 522.36H175.78C175.86 514 175.38 473.33 143.36 439.82C107.96 402.78 61.6999 403.43 54.3799 403.66V522.36Z" fill="white" fill-opacity="0.2"/>
<path d="M54.38 125.63H0V281.74H54.38V125.63Z" fill="white"/>
<path d="M175.78 281.74H54.3799V403.66H175.78V281.74Z" fill="white"/>
<path d="M296.76 403.66H175.78V522.36H296.76V403.66Z" fill="white"/>
<path d="M538.3 298.46H417.32V421.35H538.3V298.46Z" fill="white"/>
<path d="M658.86 480.53H538.3V604.43H658.86V480.53Z" fill="white"/>
<path d="M726.27 281.27H658.86V431.88H726.27V281.27Z" fill="white"/>
<path d="M658.86 158.38H538.3V281.27H658.86V158.38Z" fill="white"/>
<path d="M417.32 175.57H296.76V298.46H417.32V175.57Z" fill="white"/>
<path d="M296.76 79.8899H175.78V203.39H296.76V79.8899Z" fill="white"/>
<path d="M54.3799 125.63V0C65.3199 0.19 100.88 2.21 132.42 28.99C175.29 65.39 175.83 117.92 175.78 125.63H54.3799Z" fill="white" fill-opacity="0.5"/>
<path d="M417.29 175.45V49.8301C428.23 50.0201 463.79 52.0401 495.33 78.8201C538.2 115.22 538.74 167.75 538.69 175.46H417.29V175.45Z" fill="white" fill-opacity="0.5"/>
<path d="M658.86 281.27V480.53C597.98 479.84 551.65 427.63 556.2 372.47C560.28 322.92 604.52 281.5 658.86 281.28V281.27Z" fill="white" fill-opacity="0.5"/>
<path d="M175.78 324.76C183.57 337.54 200.12 360.85 229.63 379.41C256.61 396.38 282.23 401.72 296.76 403.65V324.76H175.78Z" fill="white" fill-opacity="0.5"/>
<path d="M54.38 403.66H0V522.36H54.38V403.66Z" fill="white" fill-opacity="0.5"/>
<path d="M417.32 480.53H296.76V604.43H417.32V480.53Z" fill="white" fill-opacity="0.5"/>
<path d="M727.3 558.41H658.86V683.03H727.3V558.41Z" fill="white" fill-opacity="0.5"/>
</g>
<defs>
<clipPath id="clip0_3007_459">
<rect width="727.29" height="683.03" fill="white"/>
</clipPath>
</defs>
</svg>
