<svg width="711" height="614" viewBox="0 0 711 614" fill="none" xmlns="http://www.w3.org/2000/svg">
<g clip-path="url(#clip0_3005_383)">
<path d="M605.62 543.04C569.33 543.01 533.03 542.98 496.74 542.95C496.76 505.54 496.78 468.12 496.79 430.71C533.02 430.79 569.24 430.88 605.47 430.96C605.52 468.32 605.57 505.68 605.62 543.04Z" fill="white"/>
<path d="M667.66 387.84C646.93 387.84 626.2 387.84 605.47 387.84V253.08H667.66V387.84Z" fill="white"/>
<path d="M605.48 253.08C569.25 252.93 533.03 252.77 496.8 252.62V141.88C533.03 141.88 569.25 141.87 605.48 141.86V253.08Z" fill="white"/>
<path d="M279.45 180.76C243.22 181.09 207 181.42 170.77 181.75C170.77 145.17 170.77 108.6 170.77 72.02H279.45V180.76Z" fill="white"/>
<path d="M171.04 361.97H62.09V252.89L170.68 253.22C170.8 289.47 170.92 325.72 171.04 361.97Z" fill="white"/>
<path d="M280.5 359.46H170.77V469.19H280.5V359.46Z" fill="white"/>
<path d="M62.09 252.9C41.39 252.93 20.69 252.96 0 252.99C0.08 205.98 0.17 158.98 0.25 111.97H62.09V252.9Z" fill="white"/>
<path d="M61.9599 469.09C45.5799 469.12 29.1999 469.15 12.8199 469.18V361.97H62.0899L61.9599 469.09Z" fill="white" fill-opacity="0.3"/>
<path d="M671.11 500.86H605.48V613.38H671.11V500.86Z" fill="white" fill-opacity="0.3"/>
<path d="M388.13 431.81H279.45V543.17H388.13V431.81Z" fill="white" fill-opacity="0.3"/>
<path d="M62.09 111.97V0C70.72 0.14 106.08 1.72 135.89 29.58C170.63 62.05 170.86 104.99 170.78 112.04C134.55 112.02 98.32 111.99 62.09 111.97Z" fill="white" fill-opacity="0.3"/>
<path d="M605.48 430.71C597.76 430.58 566.54 429.19 541.46 404.79C519.31 383.24 506.74 348.42 517.2 314.94C528.6 278.46 564.47 252.89 605.48 253.08V430.71Z" fill="white" fill-opacity="0.3"/>
<path d="M61.96 469.09C98.23 469.12 134.5 469.15 170.77 469.18C170.67 460.3 169.24 426.95 143.55 398.11C112.1 362.79 68.99 361.98 62.09 361.97L61.96 469.09Z" fill="white" fill-opacity="0.5"/>
<path d="M12.83 111.97H62.1C61.75 101.72 59.39 74.5201 39.23 50.57C30.2 39.85 20.35 33.02 12.84 28.8V111.98L12.83 111.97Z" fill="white" fill-opacity="0.5"/>
<path d="M12.83 252.99H62.1C61.75 263.24 59.39 290.44 39.23 314.39C30.2 325.11 20.35 331.94 12.84 336.16V252.98L12.83 252.99Z" fill="white" fill-opacity="0.5"/>
<path d="M279.45 72.0201C283.69 71.6801 341.35 67.9801 371.87 110.59C384.27 127.91 387.32 146.08 388.13 156.77C351.9 156.5 315.68 156.24 279.45 155.97V72.0201Z" fill="white" fill-opacity="0.5"/>
<path d="M605.48 141.86C616.78 141.63 638.69 142.78 661.99 155.11C676.32 162.69 686.4 171.97 692.82 178.98V252.82C663.71 252.91 634.59 252.99 605.48 253.08V141.86Z" fill="white" fill-opacity="0.5"/>
<path d="M605.48 500.86C617.52 500.95 637.75 499.21 657.94 487.29C708.6 457.37 710.01 392.28 710.04 387.51C675.19 387.62 640.33 387.73 605.48 387.83V500.86Z" fill="white" fill-opacity="0.5"/>
<path d="M496.74 542.96C498.61 527.48 496.17 515.59 493.41 507.48C480.86 470.48 439.31 445.05 388.12 440.27V543.22L496.74 542.97V542.96Z" fill="white" fill-opacity="0.5"/>
<path d="M450.49 92.82C434.83 83 419.81 78.33 412.75 76.42C403.06 73.79 394.57 72.6 388.12 72.03V119.47C424.35 145.08 460.57 170.7 496.8 196.31V141.88C489.96 129.87 475.66 108.6 450.49 92.82Z" fill="white" fill-opacity="0.3"/>
</g>
<defs>
<clipPath id="clip0_3005_383">
<rect width="710.04" height="613.39" fill="white"/>
</clipPath>
</defs>
</svg>
