<svg width="1825" height="708" viewBox="0 0 1825 708" fill="none" xmlns="http://www.w3.org/2000/svg">
<g clip-path="url(#clip0_2019_2)">
<path d="M1812.91 446.17C1808.78 444.01 1805.09 443.33 1799.98 443.93L1738.84 451.18L1729.38 451.41L1720.18 451.64L1714.61 451.55L1696.91 451.11C1688.6 450.9 1680.68 449.96 1673.2 447.52L1666.22 445.24L1657.19 440.84C1651.83 438.23 1644.7 429.97 1643.14 424.06L1641.36 417.26L1640.87 395.01L1641.63 387.17L1642.32 380.23L1647.48 354.03L1653.81 332.12L1657.05 321.18L1662.85 303.06L1667.47 290.68L1671.34 281.09L1680.96 255.91L1685.03 243.96L1689.46 233.92L1692.69 226.35L1699.22 212.24L1703.36 202.84L1710.94 185.21L1716.24 174.2L1727.35 150.84L1736.76 131.27L1746.2 113.36L1749.52 106.65L1760.13 85.5901L1767.72 69.6101C1771.33 62.0101 1769.77 53.8701 1764.31 47.9801C1755.7 38.6901 1737.41 41.2101 1726.24 51.5501L1720.36 59.3901L1717.06 63.6001L1706.49 78.8901C1704.43 81.8601 1703.35 84.7401 1701.82 87.9601L1695.72 100.78L1686.24 119.41L1680.36 131.65L1672.1 148.79L1669.12 154.9L1665.45 162.07L1659.58 174.31L1655.24 185.19L1651.1 194.59L1646.73 204.63L1634.62 232.86L1629.98 243.51L1627.09 249.69L1620.1 263.55L1613.45 274.35C1608.88 281.77 1602.12 283.19 1593.91 282.89L1582.89 282.48L1576.48 282.32L1552.77 285.44C1543.06 287.67 1533.81 290.76 1525.05 295.39L1519.91 298.1L1501.77 308.97L1488.07 319.96L1482.68 324.94L1478.6 328.42L1465.62 342.49L1459.29 350.12L1455.77 354.83L1444.2 371.74L1435.73 385.17L1425.96 405.06L1419.93 416.19L1416.71 422.02L1409.97 435.12C1407.8 439.34 1405.26 443.23 1402.62 442.29C1397.78 440.58 1398.29 432.4 1399.02 425.77L1399.71 419.51L1403.73 394.28L1405.86 379.87L1406.34 374.38L1407.01 365.65L1407.95 359.73L1408.54 353.43C1408.76 351.14 1409.58 348.85 1409.13 346.48C1408.52 343.3 1410.41 338.41 1409.4 330.23L1408.34 321.64L1403.9 304.53C1403.44 302.75 1402.53 300.69 1401.32 299.36L1397.33 294.96L1387.41 287.21L1380.11 283.66C1377.39 282.34 1373.81 281.8 1370.56 281.84L1363.15 281.92L1349.5 283.58L1342.11 285.28C1338.66 286.07 1335.28 287.28 1332.24 289.08L1319.5 296.62L1301.69 310.08C1297.63 313.15 1293.9 315.04 1291.62 311.62L1285.89 302.99C1280.16 294.36 1262.78 290.16 1251.28 294.47C1246.59 296.23 1241.17 297.62 1237.72 301.32L1229.71 309.95L1225.55 315.85C1222.79 319.76 1221.02 323.43 1219.2 327.62L1214.88 337.57L1206.75 355.22L1202.9 363.13L1200.02 370L1196.81 379.17L1193.53 386.69L1190.68 392.75L1187.51 400.26L1178.81 419.15C1175.23 426.93 1171.93 434.43 1167.12 441.59L1159.41 453.06L1149.86 467.18L1130.27 488.3L1125.29 492.63L1118.41 497.22L1113.97 500.31L1107.11 504.9C1100.81 509.11 1093.47 512.22 1086.05 513.1L1077.8 514.08C1064.04 515.71 1049.74 500.73 1047.18 487.77L1045.74 480.47L1044.76 471.97L1045.23 464.87C1045.63 458.8 1047.89 452.91 1053.24 448.6C1056.03 446.35 1059.68 444.79 1062.97 443.08L1085.15 431.53L1094.46 425.61L1103.01 419.85L1113.53 412.35L1120.82 406.44L1125.75 402.05L1131.53 396.57L1143.99 383.16L1148.03 377.98L1151.42 373.18L1166.66 349.35L1170.69 340.81C1173.79 334.23 1175.14 327.72 1175.98 320.75L1177.09 311.51C1177.56 307.64 1177.36 304.88 1176.77 301.02L1175.63 293.53C1174.35 285.1 1170.41 277.99 1164.71 271.92C1162.53 269.6 1160.24 268.28 1157.56 266.4L1152.69 263C1146.57 258.73 1139.45 256.5 1131.42 256.23L1125.12 256.02C1120.32 255.86 1116.02 256.01 1111.24 257.89L1106.85 258.52L1093.24 263.57C1087.39 265.74 1082.42 269.03 1077.31 272.62L1064.48 281.63C1061.88 283.46 1059.91 285.74 1057.62 287.87L1052.78 292.38L1039.06 307.3L1029.3 321.22L1020.62 334.33L1016.85 340.49L1007.13 361.05L1003.7 369.16L1001.13 375.43L995.73 388.64L991.97 400.77L974.43 449.12L970.24 459.28L964.82 470.64L956.55 484.85L944.06 504.02C938.92 511.9 925.28 525.17 915.95 525.09C911.59 525.05 908.09 522.32 907 518.27L905.01 510.91L904.6 486.56C905.46 475.77 907.85 465.53 910.72 455L916.51 433.75L919.63 423.76C922.36 418.06 923.3 412.42 925.4 406.64L930.07 393.78L932.47 387.35L944.44 356.19L947.63 347.01L951.34 338.3L956.5 326.56L958.79 320.91L962.49 312.2L968.38 296.94L972.02 288.22L974.56 281.92L977.75 274.43L981.53 265.74L984.19 259.51L989.32 246.07L996.44 228.37L1000.13 219.66L1005.55 207.31L1009.77 197.31C1012.09 191.8 1013.3 185.68 1017.54 181.03L1027.25 170.4C1031.74 165.49 1040.94 164.71 1047.75 163.35L1056.87 161.53L1067.69 159.27L1077.79 157.24L1086.85 155.24L1095.93 153.23L1104.09 151.34L1111.33 149.57L1118.59 147.78L1125.89 146L1131.44 144.55L1140.35 142.36L1157.61 137.62L1177.65 131.76L1185.09 130.16L1191.95 127.97L1214.64 120.7L1225.34 116.63L1231.1 113.68L1236.19 110.15C1239.05 108.17 1241.62 105.39 1243.3 102.47L1246.29 97.2801C1247.37 95.4001 1247.54 93.1401 1248.23 91.3401C1249.32 88.4601 1248.6 86.5101 1248.16 84.0301C1245.94 71.4901 1233.07 66.0301 1219.68 70.3401L1211.42 73.0001L1193.59 78.1801L1187 79.5901L1176.84 82.5201L1159.02 87.6701L1130.87 95.5201L1101.77 103.34L1095.46 104.98L1088.16 106.75L1081.86 108.43L1073.66 110.35L1065.66 111.71C1062.24 112.29 1056.94 114.14 1054.51 111.29C1052.07 108.42 1053.79 103.48 1055.31 100.13L1063.15 82.8301L1069 70.8701L1073.3 60.9101L1078.93 47.0301C1080.62 42.8601 1082.62 38.3701 1082.55 34.0801L1082.35 22.1901C1082.28 18.1201 1080.46 14.8001 1078.25 11.8701L1074.26 6.57015C1071.94 3.49015 1066.29 1.21015 1061.43 0.340146C1054.94 -0.829854 1048.83 0.670146 1042.95 4.34015C1038.82 6.91015 1035.22 9.60015 1032.17 13.3801L1027.64 18.9901L1024.93 23.4701C1021.45 29.2201 1018.69 34.7601 1016.18 40.8101L1010.72 53.9701L1005.02 69.4601L999.21 83.9801L990.65 104.69L986.29 115.28C982.94 123.42 975.42 127.72 966.59 128.4L956.77 130.51L950.55 132.16L940.36 134.14C938.38 134.52 936.01 132.62 936.76 130.26L940.77 117.58L953.45 91.0401L959.16 78.8401L962 71.1101L964.59 64.8001C966.06 61.2101 968.01 57.6501 968.25 53.6901C968.71 46.1201 968.11 40.8501 961.67 35.6201C951.73 27.5401 934.73 36.2801 926.74 44.9401L914.79 57.9001L909.34 66.0401C905.48 71.8001 902.64 77.4901 900.08 83.7201L898.28 88.1101L892.67 102.83L890.08 109.1L887.56 115.4L881.61 128.96C877.98 137.23 872.52 144.39 863.47 146.86L856.37 148.79L812.24 154.34L804.06 154.57C801.19 154.65 798.64 154.64 795.83 154.92L788.78 155.62L780.59 155.7L773.36 155.74L766.11 155.84L759.97 155.62L753.5 155.67L744.34 156.14C733.01 155.83 722.14 154.6 711.51 152.07L688.74 146.66C676.89 144.75 665.15 148.98 655.93 157.04L652 161.48C642.66 172.04 647.9 188.82 660.43 193.17L677.28 199.01C688.48 202.04 699.55 204.35 711.37 205.32L734.45 207.22C741.56 207.8 748.09 208.72 755.33 208.79L770.15 208.94L777.44 208.79L786.38 208.61L795.54 208.24L817.98 205.88L826.19 205.63C830.75 205.49 835.18 205.7 839.39 206.82C844.27 208.11 848.93 212.86 847.11 218L839.76 238.8L834.55 252.06L829.16 266.89L822.33 283.92L815.63 300.13L808.55 317.62L801.38 336.03L795.99 349.19L793.08 356.02L790.27 362.9L787.68 369.16L784.78 377.67L781.95 384.55L778.79 392.01L772.36 405.91L769.2 413.35L763.91 426.65L758.01 439.33L754.55 445.7L751.45 451.49L743.36 466.62L739.68 473.62L730.5 487.79L726.89 493.22L721.31 502.02L712.77 514.28L708.43 519.89C695.21 536.07 682.41 552.76 667.08 566.99L662.71 570.91L654.13 577.44L646.46 581.76C642.71 583.87 638.92 585.48 634.79 585.96L630.45 586.47C624.84 587.12 617.16 584.5 612.77 581.26C607.1 577.06 603.08 571.76 601.34 564.74C599.56 557.57 601.83 552.04 606.24 545.05L611.56 536.64L615.13 532.03L624.49 517.15L633.94 500.88L638.78 492.07L641.88 484.82L646.23 474.94L656.8 443.98L661.16 422.81L661.08 417.51C661.05 415.18 661.46 412.91 661.62 410.53L662.09 403.54L661.71 391.49L660.75 382.3L659.75 375.64C658.55 367.66 654.03 360.8 648.55 355.1L642.33 350.16C631.84 344.07 618.42 344.55 606.48 349.95C600.66 352.58 595.26 355.37 590.95 360.05L580.35 371.58L576.16 377.89L569.37 388.82L565.53 396.15C562.07 402.76 560.09 409.38 557.95 416.26L555.35 424.6L550.81 441.01L547.26 458.87L545.32 472.93L544.68 480.48L544.11 489.05L544.94 529.24L545.84 532.27L545.93 545.78C544.99 551.47 543.5 557.58 539.42 562.06L526.9 575.78L522.58 579.74L513.63 586.65L507.36 590.59C502.44 593.69 497.7 596.45 492.06 597.65L485.47 599.06C480.48 600.13 471.41 598.62 466.8 595.84C453.63 587.91 446.58 571.16 444.26 555.84L443.25 549.16L442.55 521.17L443.1 512.7L443.73 507.29L444.93 497.92C447.31 479.31 452.47 461.39 458.02 443.19L461.32 432.35L467.94 416.87L473.51 404.99L476.38 399.08C477.96 394.17 480.63 389.86 483.3 385.41L488.43 376.87L491.22 372.42L494.35 367.46L503.11 354.38L506.29 350.21L517.39 337.59L520.59 334.14C524.69 329.72 528.95 326.05 533.87 322.35L542.45 315.91L553 309.5C556.89 307.13 561.31 305.19 565.8 304.23L573.87 302.49L585.03 301.07L591.49 301.01C599.3 300.94 609.69 304.41 616.23 308.26L626.04 314.02L633.42 319.93L639.12 326.23L642.17 329.97L650.51 340.49L653.27 344.54C655.36 347.61 657.53 350.52 658.85 354.09C661.11 360.24 664.2 365.68 667.26 371.4C669.59 375.74 671.66 379.62 675.65 382.77L679.36 385.69C683.53 388.97 689.84 390.23 695.33 388.8C704.98 386.3 712.72 377.75 713.28 368.28C713.48 364.95 713.64 361.52 712.82 358.53L710.67 350.7L708.04 343.37L701.32 328.08C698.76 322.24 696.42 316.67 692.96 311.33L687.3 302.58L684.59 298.51L673.17 283.57L669.72 279.49L658.41 270.02C654.06 266.38 650.05 262.89 644.83 260.41C638.61 257.46 633 253.54 625.8 252.41L607.69 249.57L596.68 249.18L590.99 249.15L576.52 250.84L573.3 251.92L567.5 253.23C563.28 254.19 559.56 255.59 555.45 257.06L550.31 258.9L539.51 263L533.81 265.88L520.55 273.88L512.89 279.57C509.68 281.95 506.96 284.09 504.03 286.7L494.76 294.93L485.94 304.13C483.67 306.5 481.79 308.62 479.62 311.11L473.59 318.06L468.14 324.86L463.44 330.79L459.53 335.85L456.25 340.55L446.16 356.3L438.19 369.2L434.34 376.54L429.47 385.23L426.18 391.52L423.12 397.22L419.79 403.44L417.98 407.96L412.43 420.58L409.43 427.8L406.15 435.56L403.64 441.72L401.17 448.65C399.69 452.81 398.88 456.66 397.71 460.85L395.36 469.3L391.69 482.7C388.99 492.55 387.54 502.21 386.01 512.18L384.88 519.57L384.39 525.82L383.77 532.78C383.54 535.32 383.51 537.85 383.36 540.46L382.91 548.16L383.43 568.58L384.27 575.36C384.55 577.64 384.74 579.91 385.08 582.12L385.9 587.47C386.53 591.59 387.36 595.33 388.8 599.18L395.03 615.83L403.36 630.08C406.71 635.81 413.53 641.3 419.24 645.62L423.78 649.06L431.98 652.67L442.43 656.03C446.59 657.37 451.06 657.85 455.65 657.93L461.26 658.03L474.03 656.5L479.63 655.13C488.11 653.05 496.11 649.36 503.55 644.72L508.82 641.44L517.85 636.12C519.99 634.86 522.1 633 523.9 631.42L529.72 626.35L543.63 614.5L553.57 605.23C555.68 603.27 559.31 600.6 562.07 602.94L567.18 610.56L570.05 613.7L575.08 618.42L584.17 625.72L591.3 629.66L595.72 631.11L605.17 634.15C612.97 636.66 626.98 636.9 635.74 634.87C635.74 634.87 640.77 633.71 640.77 633.7C674.19 625.95 702.72 597.19 727.2 574.64C729.55 572.47 732.87 570.13 736.17 570.48C738.53 570.73 740 573.05 740.93 574.85L747.51 587.69C751.44 595.35 757.7 600.3 765.62 603.93C772.15 606.92 778.61 609.17 786.5 609.1C796.6 609.02 807.31 606.61 816.56 601.5C822.76 598.08 828.96 594.64 834.15 589.83L839.42 584.94L847.87 576.69C850.97 573.66 855.44 573.18 858.26 576.56L862.78 581.97C864.71 584.28 866.75 585.8 869.54 586.99L882.24 592.41C886.2 594.1 890.54 594.41 895.1 594.27L902.56 594.03L913.42 591.88C921.09 590.36 927.7 586.5 934.7 583.02L939.82 580.48C943.86 578.48 947.48 576.38 950.91 573.48L961.01 564.92L966.29 559.94L982.86 542.44L987.29 538.42C989.88 536.07 993.82 535.75 995.81 538.26C999.07 542.39 1002.41 546.01 1006.56 549.36L1010.27 552.35L1020.23 559.87L1030.83 565.15C1040.01 568.38 1049.91 570.02 1060.22 569.95L1066.66 569.9L1080.2 568.31L1086.5 566.72L1099.98 562.47L1110.67 558.46C1121.66 554.34 1130.75 547.08 1140.38 540.54L1146.63 536.3C1149.42 534.41 1152.72 535.12 1153.79 538.05C1156.38 545.09 1156.93 550.37 1165.39 554.29C1180.44 561.27 1197.28 553.36 1207.88 538.99L1212.91 532.17L1223.04 516.93L1231.47 501.06L1234.64 495.23L1239.29 486.41L1243.97 478.36L1252.24 461.94L1258.82 450.8L1262.51 443.7L1271.02 427.9L1278.55 414.62L1284.35 405.05L1290.18 394.6L1294.92 385.74L1302.5 375.09L1306.62 369.88L1312.16 363.51L1316.26 358.33C1321.05 352.28 1327.03 347.73 1333.75 343.72L1338.63 340.81C1343.38 337.98 1349.28 337.65 1351.6 340.78C1354.51 344.71 1354.32 349.38 1353.58 354.23L1352.1 363.99L1350.36 373.47L1346.97 394.29L1345.2 408.14L1344.54 416.82C1344.32 419.73 1343.52 422.55 1344.07 425.51C1344.57 428.2 1343.44 430.75 1343.5 433.34L1343.78 444.39C1343.84 446.67 1345.12 448.64 1344.72 451.17C1344.37 453.42 1344.89 455.49 1345.37 457.42L1348.62 470.59C1351.14 480.82 1361.17 495.62 1369.98 500.44C1374.82 503.08 1379.59 505.22 1385.54 505.73C1389.51 506.07 1393.4 507.15 1397.66 506.59L1409.57 505.03L1417.02 503.31C1423.61 501.79 1425.32 508.11 1432.05 513.53L1435.84 516.58C1438.03 518.34 1440.55 519.25 1443.47 519.87L1453.06 521.89C1456.67 522.65 1460.48 523.2 1464.48 522.66L1477.16 520.94L1499.38 513.42C1508.5 510.33 1516.33 505.08 1524.01 499.32L1528.91 495.64L1535.77 490.2L1540.69 486.35L1543.55 484.63L1547.35 480.86C1549.15 479.08 1550.89 477.58 1552.71 475.82L1558.48 470.25L1563.01 466.3L1573.99 454.84C1575.59 453.17 1579.67 452.43 1580.92 453.86L1584.49 457.93L1589.42 464.14L1597.65 473.8L1605.22 479.8L1610.87 483.5L1614.55 485.65L1617.72 487.53C1621.28 489.65 1624.57 491.34 1628.35 492.95C1632.53 494.73 1636.8 495.4 1641.19 496.83L1648.72 499.3L1669.72 503.2L1695.83 505.2L1704.84 505.08L1712.37 505.13L1756.78 499.82L1765.24 497.91L1773.49 496.09L1796.68 489.33C1804.67 487 1811.34 483.35 1817.4 477.66L1819.31 475.16C1828.06 463.7 1824.76 452.2 1812.96 446.03L1812.91 446.17ZM1054 391.78L1063.01 373.14L1071.04 360.33L1082.07 344.93L1085.72 340.37C1088.6 336.77 1091.31 333.8 1094.62 330.61L1101.71 323.78C1108.44 317.3 1116.26 314.04 1117.97 318.09C1119.46 321.62 1118.18 325.4 1116.62 328.87L1113.85 335.04L1110.47 341.58L1105.41 350.97L1098.64 360.56L1095.03 365.28L1090.42 370.63C1089.07 372.19 1088.16 373.17 1086.82 374.58L1075.53 386.4L1071.27 390.12L1064.27 395.8L1058.76 399.76C1057.52 400.65 1055.91 400.87 1054.79 400.4C1052.22 399.33 1052.24 395.41 1053.99 391.79L1054 391.78ZM592.3 494.09C591.52 495.68 590.26 496.87 589.06 497.84C587.91 498.77 586.11 498.22 586.09 496.82L586 490.84L587.64 480.95C589.6 469.11 593.31 457.77 597.11 446.2L601.97 431.4L607.36 420.14L611.88 412.59C612.43 411.67 613.35 411.11 614.15 410.98C614.93 410.85 615.91 411.29 616.46 412.03C617.77 413.79 617.07 415.87 616.74 417.89L614.43 432.44L610.53 447.26L608.68 453.99L601.94 472.35C600.09 477.39 598.23 482.02 595.85 486.88L592.31 494.09H592.3ZM900.68 334.68L891.62 359.14L887.98 368.72L879.7 390.4L873.34 410.18L869.76 420.63L862.48 440.66L856.46 459.92L853.25 468.16L847.57 482.74L842.2 495.9L834.03 512.74L830.21 518.82L827.29 523.04L816.73 534.52L812.34 538.48L808.36 541.1C804.54 543.62 800.19 543.36 797.53 540.27C794.6 536.87 793.35 532.48 793.68 527.44L794.24 519.19L795.2 510.66L800.78 484.42L804.02 472.85L807.39 461.4L812.4 443.75L815.4 435.39L820.73 421.36L823.85 413.05L827.78 403.76L833.79 386.93L841.55 366.57L844.48 359.72L847.61 351.39L850.15 345.16L855.04 331.53L866.63 301.84L869.47 294.94L875.06 280.26L878.59 269.73L881.81 262.24L884.1 256.61L889.49 243.4L892.27 236.54L897.49 223.14L902.38 212.11L907.2 201.7C908.16 199.63 910.46 197.49 912.3 195.92C918.04 191.02 924.98 188.72 932.11 186.73L939.03 184.8L946.28 183.02C949.88 182.14 953.98 181.65 956.98 183.41C958.47 184.29 958.74 187.22 958.07 188.94L946.97 217.59L941.36 232.31L935.74 246.98L932.84 253.87L929.44 261.95L924.75 273.16L922.19 279.38C920.4 286.59 917.46 293.05 914.59 299.98L906.81 318.81L900.68 334.7V334.68ZM1581.02 353.86L1575.48 365.47L1568.14 378.22L1557.92 392.76L1550.7 401.37L1544.85 409.29L1541.18 414L1531.35 424.71L1528.67 426.79L1518.66 437.32L1513.71 441.83L1508.23 446.67L1503.28 450.35L1491.68 459.2L1482.48 464.11C1478.16 466.42 1473.36 466.04 1470.46 462.5C1467.72 459.15 1467.89 454.42 1468.81 450.06L1470.04 444.23L1473.07 434.84L1479.04 419.39L1481.2 414.38L1490.66 398.45L1493.47 393.93L1497.15 389.25L1504.92 378.56L1515.68 367L1521.52 361.48L1526.47 356.99L1536.72 349.16L1543.52 345.2C1553.09 339.63 1567.35 334.27 1576.12 337.42C1582.67 339.77 1584.16 347.29 1581.03 353.85L1581.02 353.86Z" fill="#EEEADF"/>
<path d="M288.92 242.9L279.08 243.95L271.63 245.45L249.21 250.68L228.02 256.14L214.94 259.88L201.85 263.72L196.55 265.47L183.07 269.68C175.08 272.17 157.6 284.58 155.04 289.71L151.46 296.88C147.07 305.68 150.18 315.38 156.42 321.75C160.36 325.78 172.81 327.13 179.55 324.54L188.46 321.12L205.18 311.93C206.93 310.97 208.7 310.57 210 311.53C211.01 312.27 211.69 313.71 211.07 315.32L206.96 325.9L204.33 332.29L199.67 344.01C198.12 347.9 197.12 351.65 195.66 355.54L190.76 368.54L183.92 385.37L179.03 397.63C177.13 402.39 176.14 406.97 174.36 411.73L172.15 417.63L166.69 431L163.87 437.97L158.25 451.92L151.73 470.53L149.01 476.81L145.63 485.67L138.44 503.74L136.34 509.05C132.2 519.55 128.83 529.87 124.55 540.35L118.88 554.26L114.16 566.59L110.55 576.84L103.19 594.76L100.98 600.66L97.6501 608.77L95.1501 615.27L91.6201 624.81C88.3101 628.31 83.0101 629.5 78.4201 630.63C71.1301 632.43 64.4301 634.76 57.5701 637.8L40.7601 645.26C33.3701 648.54 26.8801 652.76 20.1901 657.25C17.5801 659 14.9001 660.3 12.6901 662.6C7.2401 668.28 1.7001 674.37 0.460097 681.64C-1.1399 691.08 1.4401 694.58 6.0401 700.35C8.0301 702.85 10.1901 704.79 13.4501 705.98C18.4001 707.8 25.7201 708.21 29.6301 706.62L37.5901 703.37L49.0101 695.99C52.6701 693.63 56.1801 691.69 60.1001 689.82L71.2301 684.51C83.8101 678.52 96.7901 673.92 110.38 671.18L117.84 669.67C119.94 669.24 122.16 668.19 124.41 668.42C127.1 668.69 129.44 667.28 131.89 667.07L149.93 665.51C153.8 665.18 156.93 665.6 160.87 664.47C165.79 663.05 170.39 661.2 174.69 658.14C182.52 648.39 186.16 638.41 180.1 628.52C175.11 620.37 167.08 618.41 156.79 618.26L151.61 618.19C149.05 618.15 145.96 618.34 144.25 616.54C142.95 615.18 143.36 612.74 144.09 610.96L149.82 597.04L152.73 589.4L157.58 575.53L163.55 561.09L174.27 534.31L176.85 526.27L180.06 518.06L194.33 482.56L198.08 470.83L203.77 456.92L210.6 440.09L216.43 425.47L219.21 416.85L225.74 400.5L230.23 389.42L232.59 383.58L238.88 367.11L241.12 360.37L246.76 346.41L251.98 333.52C255.93 323.76 259.32 314.26 262.78 304.35C263.95 300.99 266.39 297.37 269.98 296.42L284.83 292.5C290.39 291.03 295.8 288.88 300.28 285.17C302.39 283.41 304.67 281.36 305.97 279.09L308.68 274.33C309.78 272.41 310.38 270.08 310.39 267.94V260.19C310.41 253.14 298.83 241.8 288.92 242.86V242.9Z" fill="#EEEADF"/>
</g>
<defs>
<clipPath id="clip0_2019_2">
<rect width="1824.21" height="707.64" fill="white"/>
</clipPath>
</defs>
</svg>
